<svg xmlns="http://www.w3.org/2000/svg" xmlns:xlink="http://www.w3.org/1999/xlink" width="124" zoomAndPan="magnify" viewBox="0 0 93 59.249999" height="79" preserveAspectRatio="xMidYMid meet" version="1.0"><defs><clipPath id="7b6f0cb172"><path d="M 0.582031 0 L 45 0 L 45 58.507812 L 0.582031 58.507812 Z M 0.582031 0 " clip-rule="nonzero"/></clipPath><clipPath id="7b30a2eb85"><path d="M 23.195312 1.082031 C 31.636719 -1.402344 38.394531 6.511719 41.453125 13.5625 C 44.5 20.59375 44.957031 28.660156 43.574219 36.140625 C 41.921875 45.078125 35.113281 61.160156 23.542969 57.917969 C 21.433594 53.160156 20.402344 48.367188 20.480469 43.609375 C 20.558594 38.757812 21.761719 35.367188 23.035156 31.78125 C 24.125 28.710938 25.253906 25.535156 25.785156 21.234375 C 26.578125 14.820312 25.707031 8.0625 23.195312 1.082031 Z M 1.519531 36.140625 C 3.175781 45.109375 10.027344 61.269531 21.671875 57.882812 C 19.671875 53.136719 18.703125 48.351562 18.78125 43.582031 C 18.863281 38.453125 20.109375 34.933594 21.433594 31.210938 C 22.492188 28.226562 23.585938 25.140625 24.097656 21.027344 C 24.882812 14.65625 23.953125 7.914062 21.328125 0.925781 C 13.152344 -1.046875 6.628906 6.671875 3.640625 13.5625 C 0.589844 20.59375 0.132812 28.660156 1.519531 36.140625 Z M 1.519531 36.140625 " clip-rule="nonzero"/></clipPath><clipPath id="498e0319cd"><path d="M 48 0 L 92 0 L 92 58.507812 L 48 58.507812 Z M 48 0 " clip-rule="nonzero"/></clipPath><clipPath id="6660add075"><path d="M 70.585938 1.082031 C 79.027344 -1.402344 85.785156 6.511719 88.84375 13.5625 C 91.890625 20.59375 92.347656 28.660156 90.964844 36.140625 C 89.3125 45.078125 82.503906 61.160156 70.929688 57.917969 C 68.820312 53.160156 67.792969 48.367188 67.871094 43.609375 C 67.949219 38.757812 69.152344 35.367188 70.425781 31.78125 C 71.515625 28.710938 72.644531 25.535156 73.175781 21.234375 C 73.96875 14.820312 73.097656 8.0625 70.585938 1.082031 Z M 48.90625 36.140625 C 50.566406 45.109375 57.417969 61.269531 69.0625 57.882812 C 67.0625 53.136719 66.09375 48.351562 66.167969 43.582031 C 66.25 38.453125 67.5 34.933594 68.824219 31.210938 C 69.882812 28.226562 70.976562 25.140625 71.484375 21.027344 C 72.273438 14.65625 71.339844 7.914062 68.714844 0.925781 C 60.542969 -1.046875 54.019531 6.671875 51.03125 13.5625 C 47.980469 20.59375 47.523438 28.660156 48.90625 36.140625 Z M 48.90625 36.140625 " clip-rule="nonzero"/></clipPath></defs><g clip-path="url(#7b6f0cb172)"><g clip-path="url(#7b30a2eb85)"><path fill="#f6236b" d="M 44.320312 58.34375 L 0.773438 58.34375 L 0.773438 0.613281 L 44.320312 0.613281 Z M 44.320312 58.34375 " fill-opacity="1" fill-rule="nonzero"/></g></g><g clip-path="url(#498e0319cd)"><g clip-path="url(#6660add075)"><path fill="#f6236b" d="M 91.707031 58.34375 L 48.164062 58.34375 L 48.164062 0.613281 L 91.707031 0.613281 Z M 91.707031 58.34375 " fill-opacity="1" fill-rule="nonzero"/></g></g></svg>