<svg xmlns="http://www.w3.org/2000/svg" xmlns:xlink="http://www.w3.org/1999/xlink" width="188" zoomAndPan="magnify" viewBox="0 0 141 59.249999" height="79" preserveAspectRatio="xMidYMid meet" version="1.0"><defs><clipPath id="9a72c0f57a"><path d="M 1 0 L 45 0 L 45 58.507812 L 1 58.507812 Z M 1 0 " clip-rule="nonzero"/></clipPath><clipPath id="0f9238edad"><path d="M 23.496094 1.121094 C 31.9375 -1.363281 38.695312 6.550781 41.753906 13.601562 C 44.800781 20.636719 45.257812 28.699219 43.875 36.183594 C 42.222656 45.117188 35.414062 61.199219 23.839844 57.957031 C 21.730469 53.203125 20.703125 48.410156 20.78125 43.648438 C 20.859375 38.796875 22.0625 35.410156 23.335938 31.820312 C 24.425781 28.75 25.554688 25.578125 26.085938 21.277344 C 26.878906 14.859375 26.007812 8.101562 23.496094 1.121094 Z M 1.816406 36.183594 C 3.476562 45.148438 10.328125 61.308594 21.972656 57.921875 C 19.972656 53.175781 19.003906 48.390625 19.078125 43.621094 C 19.160156 38.492188 20.410156 34.976562 21.734375 31.25 C 22.792969 28.265625 23.886719 25.183594 24.394531 21.066406 C 25.183594 14.695312 24.25 7.953125 21.625 0.96875 C 13.453125 -1.007812 6.929688 6.710938 3.941406 13.601562 C 0.890625 20.636719 0.433594 28.699219 1.816406 36.183594 Z M 1.816406 36.183594 " clip-rule="nonzero"/></clipPath><clipPath id="fb98f8bc4d"><path d="M 48 0 L 92.699219 0 L 92.699219 58.507812 L 48 58.507812 Z M 48 0 " clip-rule="nonzero"/></clipPath><clipPath id="268ccbc669"><path d="M 70.886719 1.121094 C 79.328125 -1.363281 86.085938 6.550781 89.140625 13.601562 C 92.191406 20.636719 92.648438 28.699219 91.265625 36.183594 C 89.609375 45.117188 82.800781 61.199219 71.230469 57.957031 C 69.121094 53.203125 68.09375 48.410156 68.171875 43.648438 C 68.246094 38.796875 69.453125 35.410156 70.726562 31.820312 C 71.816406 28.75 72.941406 25.578125 73.472656 21.277344 C 74.265625 14.859375 73.394531 8.101562 70.886719 1.121094 Z M 49.207031 36.183594 C 50.867188 45.148438 57.71875 61.308594 69.363281 57.921875 C 67.363281 53.175781 66.394531 48.390625 66.46875 43.621094 C 66.550781 38.492188 67.800781 34.976562 69.121094 31.25 C 70.183594 28.265625 71.277344 25.183594 71.785156 21.066406 C 72.574219 14.695312 71.640625 7.953125 69.015625 0.96875 C 60.839844 -1.007812 54.320312 6.710938 51.332031 13.601562 C 48.28125 20.636719 47.824219 28.699219 49.207031 36.183594 Z M 49.207031 36.183594 " clip-rule="nonzero"/></clipPath><clipPath id="4ced6ebfeb"><path d="M 95.160156 0 L 140 0 L 140 58.507812 L 95.160156 58.507812 Z M 95.160156 0 " clip-rule="nonzero"/></clipPath><clipPath id="b3b7e44653"><path d="M 118.273438 1.121094 C 126.714844 -1.363281 133.472656 6.550781 136.53125 13.601562 C 139.582031 20.636719 140.039062 28.699219 138.652344 36.183594 C 137 45.117188 130.191406 61.199219 118.621094 57.957031 C 116.511719 53.203125 115.484375 48.410156 115.558594 43.648438 C 115.636719 38.796875 116.839844 35.410156 118.117188 31.820312 C 119.207031 28.75 120.332031 25.578125 120.863281 21.277344 C 121.65625 14.859375 120.785156 8.101562 118.273438 1.121094 Z M 96.597656 36.183594 C 98.257812 45.148438 105.105469 61.308594 116.75 57.921875 C 114.753906 53.175781 113.78125 48.390625 113.859375 43.621094 C 113.941406 38.492188 115.191406 34.976562 116.511719 31.25 C 117.570312 28.265625 118.667969 25.183594 119.175781 21.066406 C 119.964844 14.695312 119.03125 7.953125 116.40625 0.96875 C 108.230469 -1.007812 101.707031 6.710938 98.71875 13.601562 C 95.671875 20.636719 95.214844 28.699219 96.597656 36.183594 Z M 96.597656 36.183594 " clip-rule="nonzero"/></clipPath></defs><g clip-path="url(#9a72c0f57a)"><g clip-path="url(#0f9238edad)"><path fill="#f6236b" d="M 44.617188 58.382812 L 1.074219 58.382812 L 1.074219 0.652344 L 44.617188 0.652344 Z M 44.617188 58.382812 " fill-opacity="1" fill-rule="nonzero"/></g></g><g clip-path="url(#fb98f8bc4d)"><g clip-path="url(#268ccbc669)"><path fill="#f6236b" d="M 92.007812 58.382812 L 48.464844 58.382812 L 48.464844 0.652344 L 92.007812 0.652344 Z M 92.007812 58.382812 " fill-opacity="1" fill-rule="nonzero"/></g></g><g clip-path="url(#4ced6ebfeb)"><g clip-path="url(#b3b7e44653)"><path fill="#f6236b" d="M 139.398438 58.382812 L 95.851562 58.382812 L 95.851562 0.652344 L 139.398438 0.652344 Z M 139.398438 58.382812 " fill-opacity="1" fill-rule="nonzero"/></g></g></svg>