<svg xmlns="http://www.w3.org/2000/svg" xmlns:xlink="http://www.w3.org/1999/xlink" width="252" zoomAndPan="magnify" viewBox="0 0 189 59.249999" height="79" preserveAspectRatio="xMidYMid meet" version="1.0"><defs><clipPath id="356b7b4e8f"><path d="M 1.179688 0 L 45 0 L 45 58.507812 L 1.179688 58.507812 Z M 1.179688 0 " clip-rule="nonzero"/></clipPath><clipPath id="e961a553ee"><path d="M 23.796875 1.164062 C 32.238281 -1.320312 38.996094 6.589844 42.050781 13.640625 C 45.101562 20.675781 45.558594 28.738281 44.175781 36.222656 C 42.519531 45.160156 35.710938 61.238281 24.140625 58 C 22.03125 53.242188 21.003906 48.449219 21.082031 43.691406 C 21.160156 38.839844 22.363281 35.449219 23.636719 31.859375 C 24.726562 28.789062 25.851562 25.617188 26.382812 21.316406 C 27.175781 14.898438 26.304688 8.140625 23.796875 1.164062 Z M 2.117188 36.222656 C 3.777344 45.191406 10.628906 61.347656 22.273438 57.960938 C 20.273438 53.21875 19.304688 48.429688 19.378906 43.664062 C 19.460938 38.53125 20.710938 35.015625 22.03125 31.292969 C 23.09375 28.308594 24.1875 25.222656 24.695312 21.109375 C 25.484375 14.738281 24.550781 7.996094 21.925781 1.007812 C 13.75 -0.964844 7.230469 6.75 4.242188 13.640625 C 1.191406 20.675781 0.734375 28.738281 2.117188 36.222656 Z M 2.117188 36.222656 " clip-rule="nonzero"/></clipPath><clipPath id="55f92707f0"><path d="M 48.070312 0 L 93 0 L 93 58.507812 L 48.070312 58.507812 Z M 48.070312 0 " clip-rule="nonzero"/></clipPath><clipPath id="a294b3118b"><path d="M 71.183594 1.164062 C 79.625 -1.320312 86.382812 6.589844 89.441406 13.640625 C 92.492188 20.675781 92.949219 28.738281 91.5625 36.222656 C 89.910156 45.160156 83.101562 61.238281 71.53125 58 C 69.421875 53.242188 68.394531 48.449219 68.46875 43.691406 C 68.546875 38.839844 69.75 35.449219 71.027344 31.859375 C 72.117188 28.789062 73.242188 25.617188 73.773438 21.316406 C 74.566406 14.898438 73.695312 8.140625 71.183594 1.164062 Z M 49.507812 36.222656 C 51.167969 45.191406 58.015625 61.347656 69.660156 57.960938 C 67.664062 53.21875 66.691406 48.429688 66.769531 43.664062 C 66.851562 38.53125 68.101562 35.015625 69.421875 31.292969 C 70.480469 28.308594 71.578125 25.222656 72.085938 21.109375 C 72.875 14.738281 71.941406 7.996094 69.316406 1.007812 C 61.140625 -0.964844 54.617188 6.75 51.628906 13.640625 C 48.582031 20.675781 48.125 28.738281 49.507812 36.222656 Z M 49.507812 36.222656 " clip-rule="nonzero"/></clipPath><clipPath id="e72ae3760c"><path d="M 96 0 L 140 0 L 140 58.507812 L 96 58.507812 Z M 96 0 " clip-rule="nonzero"/></clipPath><clipPath id="6d5649f568"><path d="M 118.574219 1.164062 C 127.015625 -1.320312 133.773438 6.589844 136.832031 13.640625 C 139.882812 20.675781 140.339844 28.738281 138.953125 36.222656 C 137.300781 45.160156 130.492188 61.238281 118.921875 58 C 116.8125 53.242188 115.785156 48.449219 115.859375 43.691406 C 115.9375 38.839844 117.140625 35.449219 118.414062 31.859375 C 119.503906 28.789062 120.632812 25.617188 121.164062 21.316406 C 121.957031 14.898438 121.085938 8.140625 118.574219 1.164062 Z M 96.898438 36.222656 C 98.558594 45.191406 105.40625 61.347656 117.050781 57.960938 C 115.054688 53.21875 114.082031 48.429688 114.160156 43.664062 C 114.242188 38.53125 115.488281 35.015625 116.8125 31.292969 C 117.871094 28.308594 118.96875 25.222656 119.476562 21.109375 C 120.261719 14.738281 119.332031 7.996094 116.707031 1.007812 C 108.53125 -0.964844 102.007812 6.75 99.019531 13.640625 C 95.96875 20.675781 95.511719 28.738281 96.898438 36.222656 Z M 96.898438 36.222656 " clip-rule="nonzero"/></clipPath><clipPath id="272acad02a"><path d="M 143 0 L 187.78125 0 L 187.78125 58.507812 L 143 58.507812 Z M 143 0 " clip-rule="nonzero"/></clipPath><clipPath id="8b91a230c3"><path d="M 165.964844 1.164062 C 174.40625 -1.320312 181.164062 6.589844 184.222656 13.640625 C 187.269531 20.675781 187.726562 28.738281 186.34375 36.222656 C 184.691406 45.160156 177.882812 61.238281 166.3125 58 C 164.203125 53.242188 163.171875 48.449219 163.25 43.691406 C 163.328125 38.839844 164.53125 35.449219 165.804688 31.859375 C 166.894531 28.789062 168.023438 25.617188 168.554688 21.316406 C 169.347656 14.898438 168.476562 8.140625 165.964844 1.164062 Z M 144.289062 36.222656 C 145.945312 45.191406 152.796875 61.347656 164.441406 57.960938 C 162.441406 53.21875 161.472656 48.429688 161.550781 43.664062 C 161.632812 38.53125 162.878906 35.015625 164.203125 31.292969 C 165.261719 28.308594 166.355469 25.222656 166.867188 21.109375 C 167.652344 14.738281 166.722656 7.996094 164.09375 1.007812 C 155.921875 -0.964844 149.398438 6.75 146.410156 13.640625 C 143.359375 20.675781 142.902344 28.738281 144.289062 36.222656 Z M 144.289062 36.222656 " clip-rule="nonzero"/></clipPath></defs><g clip-path="url(#356b7b4e8f)"><g clip-path="url(#e961a553ee)"><path fill="#f6236b" d="M 44.917969 58.421875 L 1.375 58.421875 L 1.375 0.695312 L 44.917969 0.695312 Z M 44.917969 58.421875 " fill-opacity="1" fill-rule="nonzero"/></g></g><g clip-path="url(#55f92707f0)"><g clip-path="url(#a294b3118b)"><path fill="#f6236b" d="M 92.308594 58.421875 L 48.761719 58.421875 L 48.761719 0.695312 L 92.308594 0.695312 Z M 92.308594 58.421875 " fill-opacity="1" fill-rule="nonzero"/></g></g><g clip-path="url(#e72ae3760c)"><g clip-path="url(#6d5649f568)"><path fill="#f6236b" d="M 139.699219 58.421875 L 96.152344 58.421875 L 96.152344 0.695312 L 139.699219 0.695312 Z M 139.699219 58.421875 " fill-opacity="1" fill-rule="nonzero"/></g></g><g clip-path="url(#272acad02a)"><g clip-path="url(#8b91a230c3)"><path fill="#f6236b" d="M 187.089844 58.421875 L 143.542969 58.421875 L 143.542969 0.695312 L 187.089844 0.695312 Z M 187.089844 58.421875 " fill-opacity="1" fill-rule="nonzero"/></g></g></svg>