<svg xmlns="http://www.w3.org/2000/svg" xmlns:xlink="http://www.w3.org/1999/xlink" width="316" zoomAndPan="magnify" viewBox="0 0 236.87999 58.499998" height="78" preserveAspectRatio="xMidYMid meet" version="1.0"><defs><clipPath id="178bd526a7"><path d="M 1 0 L 45 0 L 45 58 L 1 58 Z M 1 0 " clip-rule="nonzero"/></clipPath><clipPath id="5e286a656c"><path d="M 23.652344 0.464844 C 32.125 -2.03125 38.910156 5.914062 41.980469 12.996094 C 45.042969 20.058594 45.503906 28.152344 44.113281 35.667969 C 42.453125 44.640625 35.617188 60.785156 23.996094 57.53125 C 21.878906 52.757812 20.847656 47.945312 20.925781 43.164062 C 21.003906 38.292969 22.210938 34.890625 23.492188 31.289062 C 24.585938 28.207031 25.714844 25.019531 26.25 20.699219 C 27.046875 14.257812 26.171875 7.472656 23.652344 0.464844 Z M 1.886719 35.667969 C 3.550781 44.671875 10.429688 60.898438 22.121094 57.496094 C 20.113281 52.730469 19.140625 47.925781 19.214844 43.136719 C 19.300781 37.988281 20.554688 34.453125 21.878906 30.714844 C 22.945312 27.71875 24.042969 24.621094 24.554688 20.492188 C 25.34375 14.09375 24.410156 7.324219 21.773438 0.308594 C 13.566406 -1.671875 7.015625 6.074219 4.015625 12.996094 C 0.953125 20.058594 0.496094 28.152344 1.886719 35.667969 Z M 1.886719 35.667969 " clip-rule="nonzero"/></clipPath><clipPath id="e298171f30"><path d="M 48.027344 0 L 93 0 L 93 58 L 48.027344 58 Z M 48.027344 0 " clip-rule="nonzero"/></clipPath><clipPath id="ee371213b2"><path d="M 71.234375 0.464844 C 79.710938 -2.03125 86.496094 5.914062 89.566406 12.996094 C 92.625 20.058594 93.085938 28.152344 91.695312 35.667969 C 90.035156 44.640625 83.199219 60.785156 71.582031 57.53125 C 69.460938 52.757812 68.429688 47.945312 68.507812 43.164062 C 68.585938 38.292969 69.792969 34.890625 71.074219 31.289062 C 72.167969 28.207031 73.300781 25.019531 73.832031 20.699219 C 74.628906 14.257812 73.753906 7.472656 71.234375 0.464844 Z M 49.46875 35.667969 C 51.132812 44.671875 58.011719 60.898438 69.703125 57.496094 C 67.699219 52.730469 66.722656 47.925781 66.800781 43.136719 C 66.882812 37.988281 68.136719 34.453125 69.464844 30.714844 C 70.527344 27.71875 71.628906 24.621094 72.136719 20.492188 C 72.929688 14.09375 71.992188 7.324219 69.355469 0.308594 C 61.148438 -1.671875 54.597656 6.074219 51.597656 12.996094 C 48.535156 20.058594 48.078125 28.152344 49.46875 35.667969 Z M 49.46875 35.667969 " clip-rule="nonzero"/></clipPath><clipPath id="e9379bfe85"><path d="M 96 0 L 140.71875 0 L 140.71875 58 L 96 58 Z M 96 0 " clip-rule="nonzero"/></clipPath><clipPath id="08b9543983"><path d="M 118.816406 0.464844 C 127.292969 -2.03125 134.078125 5.914062 137.148438 12.996094 C 140.210938 20.058594 140.667969 28.152344 139.277344 35.667969 C 137.617188 44.640625 130.78125 60.785156 119.164062 57.53125 C 117.046875 52.757812 116.015625 47.945312 116.089844 43.164062 C 116.167969 38.292969 117.375 34.890625 118.65625 31.289062 C 119.75 28.207031 120.882812 25.019531 121.417969 20.699219 C 122.210938 14.257812 121.335938 7.472656 118.816406 0.464844 Z M 97.050781 35.667969 C 98.71875 44.671875 105.59375 60.898438 117.285156 57.496094 C 115.28125 52.730469 114.304688 47.925781 114.382812 43.136719 C 114.464844 37.988281 115.71875 34.453125 117.046875 30.714844 C 118.109375 27.71875 119.210938 24.621094 119.722656 20.492188 C 120.511719 14.09375 119.574219 7.324219 116.941406 0.308594 C 108.730469 -1.671875 102.183594 6.074219 99.183594 12.996094 C 96.121094 20.058594 95.660156 28.152344 97.050781 35.667969 Z M 97.050781 35.667969 " clip-rule="nonzero"/></clipPath><clipPath id="ad2196f0e7"><path d="M 143.191406 0 L 188 0 L 188 58 L 143.191406 58 Z M 143.191406 0 " clip-rule="nonzero"/></clipPath><clipPath id="0b1ec299ec"><path d="M 166.398438 0.464844 C 174.875 -2.03125 181.660156 5.914062 184.730469 12.996094 C 187.792969 20.058594 188.25 28.152344 186.863281 35.667969 C 185.203125 44.640625 178.363281 60.785156 166.746094 57.53125 C 164.628906 52.757812 163.597656 47.945312 163.671875 43.164062 C 163.75 38.292969 164.960938 34.890625 166.238281 31.289062 C 167.332031 28.207031 168.464844 25.019531 169 20.699219 C 169.796875 14.257812 168.921875 7.472656 166.398438 0.464844 Z M 144.632812 35.667969 C 146.300781 44.671875 153.179688 60.898438 164.871094 57.496094 C 162.863281 52.730469 161.890625 47.925781 161.964844 43.136719 C 162.046875 37.988281 163.300781 34.453125 164.628906 30.714844 C 165.691406 27.71875 166.792969 24.621094 167.304688 20.492188 C 168.09375 14.09375 167.160156 7.324219 164.523438 0.308594 C 156.316406 -1.671875 149.765625 6.074219 146.765625 12.996094 C 143.703125 20.058594 143.242188 28.152344 144.632812 35.667969 Z M 144.632812 35.667969 " clip-rule="nonzero"/></clipPath><clipPath id="11d949a4b5"><path d="M 191 0 L 235.816406 0 L 235.816406 58 L 191 58 Z M 191 0 " clip-rule="nonzero"/></clipPath><clipPath id="c6ed3b495b"><path d="M 213.980469 0.464844 C 222.457031 -2.03125 229.242188 5.914062 232.3125 12.996094 C 235.375 20.058594 235.835938 28.152344 234.445312 35.667969 C 232.785156 44.640625 225.949219 60.785156 214.328125 57.53125 C 212.210938 52.757812 211.179688 47.945312 211.257812 43.164062 C 211.335938 38.292969 212.542969 34.890625 213.824219 31.289062 C 214.917969 28.207031 216.046875 25.019531 216.582031 20.699219 C 217.378906 14.257812 216.503906 7.472656 213.980469 0.464844 Z M 192.21875 35.667969 C 193.882812 44.671875 200.761719 60.898438 212.453125 57.496094 C 210.445312 52.730469 209.472656 47.925781 209.546875 43.136719 C 209.632812 37.988281 210.886719 34.453125 212.210938 30.714844 C 213.277344 27.71875 214.375 24.621094 214.886719 20.492188 C 215.675781 14.09375 214.742188 7.324219 212.105469 0.308594 C 203.898438 -1.671875 197.347656 6.074219 194.347656 12.996094 C 191.285156 20.058594 190.828125 28.152344 192.21875 35.667969 Z M 192.21875 35.667969 " clip-rule="nonzero"/></clipPath></defs><g clip-path="url(#178bd526a7)"><g clip-path="url(#5e286a656c)"><path fill="#f6236b" d="M 44.859375 57.957031 L 1.136719 57.957031 L 1.136719 -0.00390625 L 44.859375 -0.00390625 Z M 44.859375 57.957031 " fill-opacity="1" fill-rule="nonzero"/></g></g><g clip-path="url(#e298171f30)"><g clip-path="url(#ee371213b2)"><path fill="#f6236b" d="M 92.441406 57.957031 L 48.71875 57.957031 L 48.71875 -0.00390625 L 92.441406 -0.00390625 Z M 92.441406 57.957031 " fill-opacity="1" fill-rule="nonzero"/></g></g><g clip-path="url(#e9379bfe85)"><g clip-path="url(#08b9543983)"><path fill="#f6236b" d="M 140.027344 57.957031 L 96.304688 57.957031 L 96.304688 -0.00390625 L 140.027344 -0.00390625 Z M 140.027344 57.957031 " fill-opacity="1" fill-rule="nonzero"/></g></g><g clip-path="url(#ad2196f0e7)"><g clip-path="url(#0b1ec299ec)"><path fill="#f6236b" d="M 187.609375 57.957031 L 143.886719 57.957031 L 143.886719 -0.00390625 L 187.609375 -0.00390625 Z M 187.609375 57.957031 " fill-opacity="1" fill-rule="nonzero"/></g></g><g clip-path="url(#11d949a4b5)"><g clip-path="url(#c6ed3b495b)"><path fill="#f6236b" d="M 235.191406 57.957031 L 191.46875 57.957031 L 191.46875 -0.00390625 L 235.191406 -0.00390625 Z M 235.191406 57.957031 " fill-opacity="1" fill-rule="nonzero"/></g></g></svg>