<svg xmlns="http://www.w3.org/2000/svg" xmlns:xlink="http://www.w3.org/1999/xlink" zoomAndPan="magnify" viewBox="0 0 78 101.999999" preserveAspectRatio="xMidYMid meet" version="1.0">
<defs><clipPath id="5c662aaf59">
<path d="M 40.121094 1.0625 C 54.996094 -3.316406 66.90625 10.628906 72.296875 23.054688 C 77.667969 35.449219 78.472656 49.660156 76.035156 62.847656 C 73.121094 78.59375 61.121094 106.933594 40.730469 101.222656 C 37.015625 92.839844 35.203125 84.394531 35.335938 76.007812 C 35.476562 67.457031 37.59375 61.484375 39.839844 55.160156 C 41.761719 49.75 43.746094 44.15625 44.683594 36.578125 C 46.082031 25.273438 44.546875 13.363281 40.121094 1.0625 Z M 1.921875 62.847656 C 4.84375 78.648438 16.917969 107.125 37.4375 101.160156 C 33.914062 92.796875 32.207031 84.359375 32.339844 75.960938 C 32.484375 66.917969 34.6875 60.71875 37.015625 54.15625 C 38.882812 48.898438 40.8125 43.460938 41.710938 36.210938 C 43.097656 24.984375 41.453125 13.101562 36.828125 0.789062 C 22.421875 -2.6875 10.925781 10.910156 5.660156 23.054688 C 0.285156 35.449219 -0.519531 49.660156 1.921875 62.847656 Z M 1.921875 62.847656 " clip-rule="nonzero"/>
</clipPath></defs><g clip-path="url(#5c662aaf59)">
<path d="M 77.347656 101.96875 L 0.609375 101.96875 L 0.609375 0.238281 L 77.347656 0.238281 Z M 77.347656 101.96875 " fill-opacity="1" fill-rule="nonzero"/>
<path d="M 77.347656 101.96875 L 0.609375 101.96875 L 0.609375 0.238281 L 77.347656 0.238281 Z M 77.347656 101.96875 " fill-opacity="1" fill-rule="nonzero"/>
</g></svg>