<svg xmlns="http://www.w3.org/2000/svg" xmlns:xlink="http://www.w3.org/1999/xlink" width="500" zoomAndPan="magnify" viewBox="0 0 375 374.999991" height="500" preserveAspectRatio="xMidYMid meet" version="1.0"><defs><g/><clipPath id="387c86eaa4"><path d="M 64.089844 2 L 310.839844 2 L 310.839844 373 L 64.089844 373 Z M 64.089844 2 " clip-rule="nonzero"/></clipPath><clipPath id="9485fa71f3"><path d="M 136 76 L 239 76 L 239 162 L 136 162 Z M 136 76 " clip-rule="nonzero"/></clipPath><clipPath id="c972a71500"><path d="M 256.429688 109.457031 L 220.324219 181.199219 L 120.03125 130.722656 L 156.136719 58.980469 Z M 256.429688 109.457031 " clip-rule="nonzero"/></clipPath><clipPath id="3cdef653d0"><path d="M 142.671875 95.863281 C 145.488281 80.386719 163.554688 75.953125 177.269531 76.738281 C 190.953125 77.519531 204.199219 83.273438 215.03125 91.496094 C 227.972656 101.316406 248.179688 125.113281 233.703125 140.984375 C 224.414062 140.53125 215.9375 138.320312 208.398438 134.375 C 200.714844 130.351562 196.269531 125.703125 191.5625 120.785156 C 187.535156 116.578125 183.375 112.226562 176.933594 107.925781 C 167.324219 101.5 155.835938 97.460938 142.671875 95.863281 Z M 181.234375 158.652344 C 196.886719 163.207031 228.195312 165.257812 232.144531 143.941406 C 222.964844 143.320312 214.539062 141.019531 206.988281 137.066406 C 198.859375 132.8125 194.25 127.992188 189.363281 122.886719 C 185.453125 118.800781 181.40625 114.570312 175.246094 110.453125 C 165.703125 104.074219 154.1875 100.144531 140.921875 98.722656 C 131.199219 110.1875 138.28125 126.804688 146.882812 137.117188 C 155.664062 147.636719 168.175781 154.847656 181.234375 158.652344 Z M 181.234375 158.652344 " clip-rule="nonzero"/></clipPath></defs><g clip-path="url(#387c86eaa4)"><path fill="#594b47" d="M 187.492188 2.15625 C 119.308594 2.15625 64.011719 57.449219 64.011719 125.660156 C 64.011719 193.84375 187.492188 372.589844 187.492188 372.589844 C 187.492188 372.589844 310.96875 193.84375 310.96875 125.660156 C 310.96875 57.449219 255.675781 2.15625 187.492188 2.15625 Z M 187.492188 184.121094 C 151.597656 184.121094 122.503906 155.054688 122.503906 119.128906 C 122.503906 83.261719 151.597656 54.167969 187.492188 54.167969 C 223.382812 54.167969 252.453125 83.261719 252.453125 119.128906 C 252.453125 155.054688 223.382812 184.121094 187.492188 184.121094 Z M 187.492188 184.121094 " fill-opacity="1" fill-rule="nonzero"/></g><g clip-path="url(#9485fa71f3)"><g clip-path="url(#c972a71500)"><g clip-path="url(#3cdef653d0)"><path fill="#594b47" d="M 251.082031 108.148438 L 216.085938 177.683594 L 123.90625 131.289062 L 158.898438 61.753906 Z M 251.082031 108.148438 " fill-opacity="1" fill-rule="nonzero"/></g></g></g><g fill="#ffffff" fill-opacity="1"><g transform="translate(115.326326, 224.956216)"><g><path d="M 14.96875 0.71875 C 12.351562 0.71875 10.0625 0.0820312 8.09375 -1.1875 C 6.125 -2.457031 4.601562 -4.234375 3.53125 -6.515625 C 2.46875 -8.796875 1.9375 -11.425781 1.9375 -14.40625 C 1.9375 -17.375 2.484375 -20.003906 3.578125 -22.296875 C 4.671875 -24.585938 6.21875 -26.363281 8.21875 -27.625 C 10.226562 -28.882812 12.539062 -29.515625 15.15625 -29.515625 C 16.1875 -29.515625 17.234375 -29.332031 18.296875 -28.96875 C 19.367188 -28.613281 20.335938 -28.113281 21.203125 -27.46875 L 23.609375 -29.515625 L 24.375 -29.515625 L 24.375 -20.59375 L 23.609375 -20.59375 L 21.390625 -26.171875 C 20.546875 -26.941406 19.566406 -27.550781 18.453125 -28 C 17.335938 -28.457031 16.238281 -28.6875 15.15625 -28.6875 C 13.476562 -28.6875 11.992188 -28.253906 10.703125 -27.390625 C 9.421875 -26.523438 8.421875 -25.265625 7.703125 -23.609375 C 6.984375 -21.953125 6.625 -19.988281 6.625 -17.71875 L 6.625 -11.125 C 6.625 -8.84375 6.972656 -6.875 7.671875 -5.21875 C 8.367188 -3.5625 9.335938 -2.296875 10.578125 -1.421875 C 11.828125 -0.546875 13.289062 -0.109375 14.96875 -0.109375 C 16.195312 -0.109375 17.421875 -0.378906 18.640625 -0.921875 C 19.867188 -1.460938 20.890625 -2.1875 21.703125 -3.09375 L 23.796875 -8.890625 L 24.546875 -8.890625 L 24.546875 0.359375 L 23.796875 0.359375 L 21.203125 -1.46875 C 20.335938 -0.78125 19.351562 -0.242188 18.25 0.140625 C 17.144531 0.523438 16.050781 0.71875 14.96875 0.71875 Z M 14.96875 0.71875 "/></g></g></g><g fill="#ffffff" fill-opacity="1"><g transform="translate(142.146377, 224.956216)"><g><path d="M 10.875 0.359375 C 9.144531 0.359375 7.570312 -0.0390625 6.15625 -0.84375 C 4.738281 -1.644531 3.613281 -2.785156 2.78125 -4.265625 C 1.957031 -5.742188 1.546875 -7.429688 1.546875 -9.328125 C 1.546875 -11.222656 1.957031 -12.898438 2.78125 -14.359375 C 3.613281 -15.828125 4.738281 -16.960938 6.15625 -17.765625 C 7.570312 -18.566406 9.144531 -18.96875 10.875 -18.96875 C 12.601562 -18.96875 14.175781 -18.566406 15.59375 -17.765625 C 17.007812 -16.960938 18.128906 -15.828125 18.953125 -14.359375 C 19.785156 -12.898438 20.203125 -11.222656 20.203125 -9.328125 C 20.203125 -7.429688 19.785156 -5.742188 18.953125 -4.265625 C 18.128906 -2.785156 17.007812 -1.644531 15.59375 -0.84375 C 14.175781 -0.0390625 12.601562 0.359375 10.875 0.359375 Z M 10.875 -0.4375 C 12.644531 -0.4375 13.976562 -1.082031 14.875 -2.375 C 15.78125 -3.664062 16.234375 -5.382812 16.234375 -7.53125 L 16.234375 -11.125 C 16.234375 -13.257812 15.78125 -14.96875 14.875 -16.25 C 13.976562 -17.539062 12.644531 -18.1875 10.875 -18.1875 C 9.09375 -18.1875 7.753906 -17.539062 6.859375 -16.25 C 5.960938 -14.96875 5.515625 -13.257812 5.515625 -11.125 L 5.515625 -7.53125 C 5.515625 -5.382812 5.960938 -3.664062 6.859375 -2.375 C 7.753906 -1.082031 9.09375 -0.4375 10.875 -0.4375 Z M 10.875 -0.4375 "/></g></g></g><g fill="#ffffff" fill-opacity="1"><g transform="translate(163.890425, 224.956216)"><g><path d="M 0.96875 -0.71875 L 3.484375 -1.078125 L 3.484375 -17.5625 L 0.96875 -17.921875 L 0.96875 -18.640625 L 3.484375 -18.640625 L 3.484375 -21.671875 C 3.484375 -23.972656 3.953125 -25.796875 4.890625 -27.140625 C 5.828125 -28.484375 7.425781 -29.15625 9.6875 -29.15625 C 11.101562 -29.15625 12.269531 -28.8125 13.1875 -28.125 C 14.113281 -27.445312 14.578125 -26.519531 14.578125 -25.34375 C 14.578125 -24.625 14.378906 -24.035156 13.984375 -23.578125 C 13.585938 -23.117188 13.054688 -22.890625 12.390625 -22.890625 C 11.785156 -22.890625 11.253906 -23.117188 10.796875 -23.578125 C 10.335938 -24.035156 10.109375 -24.5625 10.109375 -25.15625 C 10.929688 -25.40625 11.34375 -25.972656 11.34375 -26.859375 C 11.34375 -27.265625 11.179688 -27.617188 10.859375 -27.921875 C 10.535156 -28.222656 10.144531 -28.375 9.6875 -28.375 C 8.75 -28.375 8.082031 -27.929688 7.6875 -27.046875 C 7.289062 -26.171875 7.09375 -24.75 7.09375 -22.78125 L 7.09375 -18.640625 L 11.765625 -18.640625 L 11.765625 -17.921875 L 7.09375 -17.5625 L 7.09375 -1.078125 L 11.375 -0.71875 L 11.375 0 L 0.96875 0 Z M 0.96875 -0.71875 "/></g></g></g><g fill="#ffffff" fill-opacity="1"><g transform="translate(176.130452, 224.956216)"><g><path d="M 0.96875 -0.71875 L 3.484375 -1.078125 L 3.484375 -17.5625 L 0.96875 -17.921875 L 0.96875 -18.640625 L 3.484375 -18.640625 L 3.484375 -21.671875 C 3.484375 -23.972656 3.953125 -25.796875 4.890625 -27.140625 C 5.828125 -28.484375 7.425781 -29.15625 9.6875 -29.15625 C 11.101562 -29.15625 12.269531 -28.8125 13.1875 -28.125 C 14.113281 -27.445312 14.578125 -26.519531 14.578125 -25.34375 C 14.578125 -24.625 14.378906 -24.035156 13.984375 -23.578125 C 13.585938 -23.117188 13.054688 -22.890625 12.390625 -22.890625 C 11.785156 -22.890625 11.253906 -23.117188 10.796875 -23.578125 C 10.335938 -24.035156 10.109375 -24.5625 10.109375 -25.15625 C 10.929688 -25.40625 11.34375 -25.972656 11.34375 -26.859375 C 11.34375 -27.265625 11.179688 -27.617188 10.859375 -27.921875 C 10.535156 -28.222656 10.144531 -28.375 9.6875 -28.375 C 8.75 -28.375 8.082031 -27.929688 7.6875 -27.046875 C 7.289062 -26.171875 7.09375 -24.75 7.09375 -22.78125 L 7.09375 -18.640625 L 11.765625 -18.640625 L 11.765625 -17.921875 L 7.09375 -17.5625 L 7.09375 -1.078125 L 11.375 -0.71875 L 11.375 0 L 0.96875 0 Z M 0.96875 -0.71875 "/></g></g></g><g fill="#ffffff" fill-opacity="1"><g transform="translate(188.37048, 224.956216)"><g><path d="M 11.046875 0.359375 C 9.273438 0.359375 7.664062 -0.0390625 6.21875 -0.84375 C 4.78125 -1.644531 3.640625 -2.773438 2.796875 -4.234375 C 1.960938 -5.703125 1.546875 -7.398438 1.546875 -9.328125 C 1.546875 -11.242188 1.957031 -12.925781 2.78125 -14.375 C 3.613281 -15.832031 4.734375 -16.960938 6.140625 -17.765625 C 7.546875 -18.566406 9.113281 -18.96875 10.84375 -18.96875 C 12.351562 -18.96875 13.707031 -18.628906 14.90625 -17.953125 C 16.101562 -17.285156 17.035156 -16.359375 17.703125 -15.171875 C 18.378906 -13.984375 18.726562 -12.625 18.75 -11.09375 L 5.515625 -11.09375 L 5.515625 -7.53125 C 5.515625 -5.414062 5.988281 -3.703125 6.9375 -2.390625 C 7.882812 -1.085938 9.253906 -0.4375 11.046875 -0.4375 C 12.703125 -0.4375 14.164062 -0.898438 15.4375 -1.828125 C 16.71875 -2.765625 17.5 -3.976562 17.78125 -5.46875 L 18.609375 -5.46875 C 18.273438 -3.695312 17.421875 -2.28125 16.046875 -1.21875 C 14.679688 -0.164062 13.015625 0.359375 11.046875 0.359375 Z M 14.796875 -11.984375 C 14.796875 -14.078125 14.472656 -15.632812 13.828125 -16.65625 C 13.179688 -17.675781 12.171875 -18.1875 10.796875 -18.1875 C 9.191406 -18.1875 7.941406 -17.617188 7.046875 -16.484375 C 6.160156 -15.359375 5.660156 -13.859375 5.546875 -11.984375 Z M 14.796875 -11.984375 "/></g></g></g><g fill="#ffffff" fill-opacity="1"><g transform="translate(208.56652, 224.956216)"><g><path d="M 11.046875 0.359375 C 9.273438 0.359375 7.664062 -0.0390625 6.21875 -0.84375 C 4.78125 -1.644531 3.640625 -2.773438 2.796875 -4.234375 C 1.960938 -5.703125 1.546875 -7.398438 1.546875 -9.328125 C 1.546875 -11.242188 1.957031 -12.925781 2.78125 -14.375 C 3.613281 -15.832031 4.734375 -16.960938 6.140625 -17.765625 C 7.546875 -18.566406 9.113281 -18.96875 10.84375 -18.96875 C 12.351562 -18.96875 13.707031 -18.628906 14.90625 -17.953125 C 16.101562 -17.285156 17.035156 -16.359375 17.703125 -15.171875 C 18.378906 -13.984375 18.726562 -12.625 18.75 -11.09375 L 5.515625 -11.09375 L 5.515625 -7.53125 C 5.515625 -5.414062 5.988281 -3.703125 6.9375 -2.390625 C 7.882812 -1.085938 9.253906 -0.4375 11.046875 -0.4375 C 12.703125 -0.4375 14.164062 -0.898438 15.4375 -1.828125 C 16.71875 -2.765625 17.5 -3.976562 17.78125 -5.46875 L 18.609375 -5.46875 C 18.273438 -3.695312 17.421875 -2.28125 16.046875 -1.21875 C 14.679688 -0.164062 13.015625 0.359375 11.046875 0.359375 Z M 14.796875 -11.984375 C 14.796875 -14.078125 14.472656 -15.632812 13.828125 -16.65625 C 13.179688 -17.675781 12.171875 -18.1875 10.796875 -18.1875 C 9.191406 -18.1875 7.941406 -17.617188 7.046875 -16.484375 C 6.160156 -15.359375 5.660156 -13.859375 5.546875 -11.984375 Z M 14.796875 -11.984375 "/></g></g></g><g fill="#ffffff" fill-opacity="1"><g transform="translate(161.00601, 260.956214)"><g><path d="M 1.4375 -0.75 L 4.75 -1.296875 L 4.75 -27.5 L 1.4375 -28.015625 L 1.4375 -28.796875 L 12.421875 -28.796875 C 15.015625 -28.796875 17.078125 -28.554688 18.609375 -28.078125 C 20.148438 -27.597656 21.265625 -26.867188 21.953125 -25.890625 C 22.648438 -24.921875 23 -23.644531 23 -22.0625 C 23 -18.613281 20.816406 -16.40625 16.453125 -15.4375 L 16.453125 -15.265625 C 19.117188 -14.898438 21.1875 -14.101562 22.65625 -12.875 C 24.132812 -11.65625 24.875 -9.957031 24.875 -7.78125 C 24.875 -5.132812 23.90625 -3.175781 21.96875 -1.90625 C 20.039062 -0.632812 17.429688 0 14.140625 0 L 1.4375 0 Z M 12.703125 -15.546875 C 14.628906 -15.546875 16.109375 -16.085938 17.140625 -17.171875 C 18.171875 -18.253906 18.6875 -19.789062 18.6875 -21.78125 L 18.6875 -22 C 18.6875 -25.9375 16.597656 -27.90625 12.421875 -27.90625 L 8.71875 -27.90625 L 8.71875 -15.546875 Z M 14.140625 -0.859375 C 16.179688 -0.859375 17.765625 -1.453125 18.890625 -2.640625 C 20.023438 -3.828125 20.59375 -5.523438 20.59375 -7.734375 L 20.59375 -8.140625 C 20.59375 -10.316406 20.035156 -11.945312 18.921875 -13.03125 C 17.804688 -14.113281 16.210938 -14.65625 14.140625 -14.65625 L 8.71875 -14.65625 L 8.71875 -0.859375 Z M 14.140625 -0.859375 "/></g></g></g><g fill="#ffffff" fill-opacity="1"><g transform="translate(187.826062, 260.956214)"><g><path d="M 11.046875 0.359375 C 9.273438 0.359375 7.664062 -0.0390625 6.21875 -0.84375 C 4.78125 -1.644531 3.640625 -2.773438 2.796875 -4.234375 C 1.960938 -5.703125 1.546875 -7.398438 1.546875 -9.328125 C 1.546875 -11.242188 1.957031 -12.925781 2.78125 -14.375 C 3.613281 -15.832031 4.734375 -16.960938 6.140625 -17.765625 C 7.546875 -18.566406 9.113281 -18.96875 10.84375 -18.96875 C 12.351562 -18.96875 13.707031 -18.628906 14.90625 -17.953125 C 16.101562 -17.285156 17.035156 -16.359375 17.703125 -15.171875 C 18.378906 -13.984375 18.726562 -12.625 18.75 -11.09375 L 5.515625 -11.09375 L 5.515625 -7.53125 C 5.515625 -5.414062 5.988281 -3.703125 6.9375 -2.390625 C 7.882812 -1.085938 9.253906 -0.4375 11.046875 -0.4375 C 12.703125 -0.4375 14.164062 -0.898438 15.4375 -1.828125 C 16.71875 -2.765625 17.5 -3.976562 17.78125 -5.46875 L 18.609375 -5.46875 C 18.273438 -3.695312 17.421875 -2.28125 16.046875 -1.21875 C 14.679688 -0.164062 13.015625 0.359375 11.046875 0.359375 Z M 14.796875 -11.984375 C 14.796875 -14.078125 14.472656 -15.632812 13.828125 -16.65625 C 13.179688 -17.675781 12.171875 -18.1875 10.796875 -18.1875 C 9.191406 -18.1875 7.941406 -17.617188 7.046875 -16.484375 C 6.160156 -15.359375 5.660156 -13.859375 5.546875 -11.984375 Z M 14.796875 -11.984375 "/></g></g></g><g fill="#ffffff" fill-opacity="1"><g transform="translate(208.022102, 260.956214)"><g><path d="M 11.046875 0.359375 C 9.273438 0.359375 7.664062 -0.0390625 6.21875 -0.84375 C 4.78125 -1.644531 3.640625 -2.773438 2.796875 -4.234375 C 1.960938 -5.703125 1.546875 -7.398438 1.546875 -9.328125 C 1.546875 -11.242188 1.957031 -12.925781 2.78125 -14.375 C 3.613281 -15.832031 4.734375 -16.960938 6.140625 -17.765625 C 7.546875 -18.566406 9.113281 -18.96875 10.84375 -18.96875 C 12.351562 -18.96875 13.707031 -18.628906 14.90625 -17.953125 C 16.101562 -17.285156 17.035156 -16.359375 17.703125 -15.171875 C 18.378906 -13.984375 18.726562 -12.625 18.75 -11.09375 L 5.515625 -11.09375 L 5.515625 -7.53125 C 5.515625 -5.414062 5.988281 -3.703125 6.9375 -2.390625 C 7.882812 -1.085938 9.253906 -0.4375 11.046875 -0.4375 C 12.703125 -0.4375 14.164062 -0.898438 15.4375 -1.828125 C 16.71875 -2.765625 17.5 -3.976562 17.78125 -5.46875 L 18.609375 -5.46875 C 18.273438 -3.695312 17.421875 -2.28125 16.046875 -1.21875 C 14.679688 -0.164062 13.015625 0.359375 11.046875 0.359375 Z M 14.796875 -11.984375 C 14.796875 -14.078125 14.472656 -15.632812 13.828125 -16.65625 C 13.179688 -17.675781 12.171875 -18.1875 10.796875 -18.1875 C 9.191406 -18.1875 7.941406 -17.617188 7.046875 -16.484375 C 6.160156 -15.359375 5.660156 -13.859375 5.546875 -11.984375 Z M 14.796875 -11.984375 "/></g></g></g><g fill="#ffffff" fill-opacity="1"><g transform="translate(228.218142, 260.956214)"><g><path d="M 0.96875 -0.71875 L 3.484375 -1.078125 L 3.484375 -17.5625 L 0.96875 -17.921875 L 0.96875 -18.640625 L 7.09375 -18.640625 L 7.09375 -14.765625 C 7.976562 -16.054688 9.019531 -17.078125 10.21875 -17.828125 C 11.425781 -18.585938 12.722656 -18.96875 14.109375 -18.96875 C 15.835938 -18.96875 17.195312 -18.535156 18.1875 -17.671875 C 19.1875 -16.804688 19.6875 -15.523438 19.6875 -13.828125 L 19.6875 -1.078125 L 22.21875 -0.71875 L 22.21875 0 L 13.9375 0 L 13.9375 -0.71875 L 16.09375 -1.078125 L 16.09375 -13.75 C 16.09375 -15 15.835938 -15.960938 15.328125 -16.640625 C 14.828125 -17.328125 14.050781 -17.671875 13 -17.671875 C 11.894531 -17.671875 10.832031 -17.269531 9.8125 -16.46875 C 8.789062 -15.664062 7.882812 -14.675781 7.09375 -13.5 L 7.09375 -1.078125 L 9.25 -0.71875 L 9.25 0 L 0.96875 0 Z M 0.96875 -0.71875 "/></g></g></g></svg>